<svg width="57" height="14" viewBox="0 0 57 14" fill="none" xmlns="http://www.w3.org/2000/svg">
<path d="M0.876188 7.016C0.876188 5.91733 0.966854 4.97333 1.14819 4.184C1.34019 3.384 1.65485 2.728 2.09219 2.216C2.54019 1.704 3.12685 1.32533 3.85219 1.08C4.57752 0.834666 5.47352 0.712 6.54019 0.712C7.61752 0.712 8.51352 0.834666 9.22819 1.08C9.95352 1.32533 10.5349 1.704 10.9722 2.216C11.4202 2.728 11.7349 3.384 11.9162 4.184C12.1082 4.97333 12.2042 5.91733 12.2042 7.016C12.2042 8.06133 12.1189 8.97867 11.9482 9.768C11.7775 10.5467 11.4735 11.1973 11.0362 11.72C10.6095 12.2427 10.0282 12.6373 9.29219 12.904C8.56685 13.16 7.64952 13.288 6.54019 13.288C5.43085 13.288 4.50819 13.16 3.77219 12.904C3.04685 12.6373 2.46552 12.2427 2.02819 11.72C1.60152 11.1973 1.30285 10.5467 1.13219 9.768C0.961521 8.97867 0.876188 8.06133 0.876188 7.016ZM5.00419 5.016V10.008H6.60419C7.13752 10.008 7.51619 9.94933 7.74019 9.832C7.97485 9.704 8.09219 9.42133 8.09219 8.984V3.992H6.47619C5.96419 3.992 5.59085 4.056 5.35619 4.184C5.12152 4.30133 5.00419 4.57867 5.00419 5.016Z" fill="#FF9900"/>
<path d="M19.8819 10.104H17.3859V13H13.5459V0.999999H19.5939C22.3459 0.999999 23.7219 2.47733 23.7219 5.432C23.7219 6.08267 23.6579 6.69067 23.5299 7.256C23.4019 7.82133 23.1833 8.31733 22.8739 8.744C22.5753 9.16 22.1806 9.49067 21.6899 9.736C21.2099 9.98133 20.6073 10.104 19.8819 10.104ZM18.2659 4.072H17.3859V7.032H18.2659C18.7353 7.032 19.0713 6.984 19.2739 6.888C19.4873 6.792 19.5939 6.568 19.5939 6.216V4.872C19.5939 4.53067 19.4873 4.312 19.2739 4.216C19.0713 4.12 18.7353 4.072 18.2659 4.072ZM28.7141 7.08V13H24.8741V0.52L28.7141 0.231999V3.752C29.5354 3.32533 30.4421 3.112 31.4341 3.112C32.4367 3.112 33.1941 3.30933 33.7061 3.704C34.2181 4.088 34.4741 4.62667 34.4741 5.32V13H30.6341V6.28H30.0421C29.5727 6.28 29.2314 6.328 29.0181 6.424C28.8154 6.52 28.7141 6.73867 28.7141 7.08ZM40.1359 13H36.2959V3.88L40.1359 3.4V13ZM36.0879 1.592C36.0879 1.304 36.1199 1.064 36.1839 0.872C36.2479 0.669333 36.3599 0.509333 36.5199 0.391999C36.6799 0.264 36.8986 0.173333 37.1759 0.119999C37.4533 0.0666656 37.8053 0.039999 38.2319 0.039999C38.6586 0.039999 39.0053 0.0666656 39.2719 0.119999C39.5493 0.173333 39.7679 0.264 39.9279 0.391999C40.0879 0.509333 40.1999 0.669333 40.2639 0.872C40.3279 1.064 40.3599 1.304 40.3599 1.592C40.3599 1.88 40.3279 2.12 40.2639 2.312C40.1999 2.504 40.0879 2.664 39.9279 2.792C39.7679 2.90933 39.5493 2.99467 39.2719 3.048C39.0053 3.09067 38.6586 3.112 38.2319 3.112C37.9226 3.112 37.6346 3.10133 37.3679 3.08C37.1119 3.05867 36.8879 3 36.6959 2.904C36.5039 2.79733 36.3546 2.64267 36.2479 2.44C36.1413 2.23733 36.0879 1.95467 36.0879 1.592ZM47.4376 13V6.28H47.1656C46.9949 6.28 46.8296 6.28533 46.6696 6.296C46.5202 6.30667 46.3869 6.344 46.2696 6.408C46.1522 6.46133 46.0616 6.54667 45.9976 6.664C45.9336 6.78133 45.9016 6.94667 45.9016 7.16V13H42.0616V3.4H43.9816L44.8456 4.28C45.6242 3.50133 46.6482 3.112 47.9176 3.112C49.1762 3.112 50.0936 3.37333 50.6696 3.896C51.4696 3.37333 52.3762 3.112 53.3896 3.112C54.4242 3.112 55.2242 3.30933 55.7896 3.704C56.3656 4.088 56.6536 4.62667 56.6536 5.32V13H52.8136V6.28H52.5416C52.3922 6.28 52.2429 6.28533 52.0936 6.296C51.9442 6.30667 51.8109 6.33867 51.6936 6.392C51.5869 6.43467 51.4909 6.50933 51.4056 6.616C51.3309 6.72267 51.2882 6.86667 51.2776 7.048V13H47.4376Z" fill="white"/>
</svg>
