<svg width="58" height="20" viewBox="0 0 58 22" fill="none" xmlns="http://www.w3.org/2000/svg">
<path d="M8.44194 11.616L10.0899 4H14.1379L11.1619 16H5.56194L2.58594 4H6.63394L8.26594 11.616H8.44194ZM18.9328 16H15.0928V6.88L18.9328 6.4V16ZM14.8848 4.592C14.8848 4.304 14.9168 4.064 14.9808 3.872C15.0448 3.66933 15.1568 3.50933 15.3168 3.392C15.4768 3.264 15.6955 3.17333 15.9728 3.12C16.2501 3.06667 16.6021 3.04 17.0288 3.04C17.4555 3.04 17.8021 3.06667 18.0688 3.12C18.3461 3.17333 18.5648 3.264 18.7248 3.392C18.8848 3.50933 18.9968 3.66933 19.0608 3.872C19.1248 4.064 19.1568 4.304 19.1568 4.592C19.1568 4.88 19.1248 5.12 19.0608 5.312C18.9968 5.504 18.8848 5.664 18.7248 5.792C18.5648 5.90933 18.3461 5.99467 18.0688 6.048C17.8021 6.09067 17.4555 6.112 17.0288 6.112C16.7195 6.112 16.4315 6.10133 16.1648 6.08C15.9088 6.05867 15.6848 6 15.4928 5.904C15.3008 5.79733 15.1515 5.64267 15.0448 5.44C14.9381 5.23733 14.8848 4.95467 14.8848 4.592ZM24.6024 12.736V13.408C24.7944 13.4293 24.9864 13.4453 25.1784 13.456C25.3704 13.4667 25.5624 13.472 25.7544 13.472C26.9491 13.472 28.1544 13.28 29.3704 12.896L29.8184 15.712C28.3784 16.096 26.9598 16.288 25.5624 16.288C23.7704 16.288 22.4744 15.872 21.6744 15.04C20.8744 14.1973 20.4744 12.9173 20.4744 11.2C20.4744 9.48267 20.8744 8.208 21.6744 7.376C22.4851 6.53333 23.7811 6.112 25.5624 6.112C26.4584 6.112 27.2051 6.17067 27.8024 6.288C28.3998 6.39467 28.8798 6.58133 29.2424 6.848C29.6158 7.104 29.8771 7.456 30.0264 7.904C30.1864 8.34133 30.2664 8.896 30.2664 9.568C30.2664 10.1227 30.1704 10.6027 29.9784 11.008C29.7971 11.4027 29.4878 11.728 29.0504 11.984C28.6131 12.24 28.0318 12.432 27.3064 12.56C26.5811 12.6773 25.6798 12.736 24.6024 12.736ZM24.6024 9.728V10.512H25.3864C25.8558 10.512 26.1918 10.464 26.3944 10.368C26.6078 10.272 26.7144 10.048 26.7144 9.696V8.912H25.9304C25.4611 8.912 25.1198 8.96 24.9064 9.056C24.7038 9.152 24.6024 9.376 24.6024 9.728Z" fill="white"/>
<path d="M31.1262 10.016C31.1262 8.91733 31.2169 7.97333 31.3982 7.184C31.5902 6.384 31.9049 5.728 32.3422 5.216C32.7902 4.704 33.3769 4.32533 34.1022 4.08C34.8275 3.83467 35.7235 3.712 36.7902 3.712C37.8675 3.712 38.7635 3.83467 39.4782 4.08C40.2035 4.32533 40.7849 4.704 41.2222 5.216C41.6702 5.728 41.9849 6.384 42.1662 7.184C42.3582 7.97333 42.4542 8.91733 42.4542 10.016C42.4542 11.0613 42.3689 11.9787 42.1982 12.768C42.0275 13.5467 41.7235 14.1973 41.2862 14.72C40.8595 15.2427 40.2782 15.6373 39.5422 15.904C38.8169 16.16 37.8995 16.288 36.7902 16.288C35.6809 16.288 34.7582 16.16 34.0222 15.904C33.2969 15.6373 32.7155 15.2427 32.2782 14.72C31.8515 14.1973 31.5529 13.5467 31.3822 12.768C31.2115 11.9787 31.1262 11.0613 31.1262 10.016ZM35.2542 8.016V13.008H36.8542C37.3875 13.008 37.7662 12.9493 37.9902 12.832C38.2249 12.704 38.3422 12.4213 38.3422 11.984V6.992H36.7262C36.2142 6.992 35.8409 7.056 35.6062 7.184C35.3715 7.30133 35.2542 7.57867 35.2542 8.016ZM54.4519 16H50.8359L47.9079 11.744C47.8546 11.6693 47.8119 11.5573 47.7799 11.408C47.7479 11.2587 47.7266 11.0613 47.7159 10.816H47.6359V16H43.7959V4H47.4119L50.3399 8.256C50.3933 8.33067 50.4359 8.44267 50.4679 8.592C50.4999 8.74133 50.5213 8.93867 50.5319 9.184H50.6119V4H54.4519V16Z" fill="#00FF29"/>
</svg>
